<svg width="329" height="36" viewBox="0 0 329 36" fill="none" xmlns="http://www.w3.org/2000/svg">
<path d="M304.954 6.35107C303.009 6.35107 301.064 6.89967 299.36 7.96362H294.398V18.8275C294.398 18.8857 294.398 18.9439 294.398 19.0021V29.3755H301.355V19.0021C301.355 16.5999 301.538 15.7437 301.945 14.9956C302.061 14.7296 302.228 14.5302 302.41 14.3473C303.108 13.6491 303.998 13.2917 304.954 13.2917C305.643 13.2917 306.3 13.4911 306.873 13.8569L311.337 8.52053C309.458 7.09085 307.214 6.35939 304.962 6.35939L304.954 6.35107Z" fill="#00C6E1"/>
<path d="M283.159 15.0711C285.619 15.8607 286.899 16.4343 287.996 17.4068C289.542 18.745 290.44 20.582 290.44 22.5353C290.44 26.5417 286.717 29.7585 282.162 29.7585C279.901 29.7585 277.608 28.9689 276.103 27.6639C275.064 26.7662 274.391 26.0929 273.826 25.3448L273.602 25.0622L278.322 21.5046C278.929 22.153 279.519 22.6434 280.093 22.9675C280.849 23.3998 281.472 23.5993 282.162 23.5993C283.301 23.5993 284.232 23.2502 284.232 22.6184C284.232 22.4356 284.148 22.2943 283.924 22.1114C283.641 21.8704 283.085 21.6044 282.029 21.2137C281.946 21.1888 281.298 20.9726 281.181 20.9311C278.721 20.1414 277.441 19.5679 276.344 18.5954C274.798 17.2572 273.901 15.4202 273.901 13.4668C273.901 9.46043 277.624 6.24365 282.179 6.24365C284.439 6.24365 286.733 7.0333 288.237 8.3383C289.276 9.236 289.95 9.90928 290.515 10.6574L290.739 10.94L286.018 14.4975C285.387 13.8492 284.797 13.3588 284.248 13.0346C283.492 12.6024 282.868 12.4029 282.179 12.4029C281.04 12.4029 280.109 12.7271 280.109 13.3837C280.109 13.5666 280.192 13.6913 280.392 13.8908C280.674 14.1318 281.231 14.3978 282.287 14.7885C282.403 14.83 283.035 15.0295 283.159 15.0711Z" fill="#00C6E1"/>
<path d="M321.269 15.0711C323.729 15.8607 325.009 16.4343 326.106 17.4068C327.652 18.745 328.549 20.582 328.549 22.5353C328.549 26.5417 324.826 29.7585 320.271 29.7585C318.011 29.7585 315.717 28.9689 314.213 27.6639C313.174 26.7662 312.501 26.0929 311.935 25.3448L311.711 25.0622L316.432 21.5046C317.038 22.153 317.628 22.6434 318.202 22.9675C318.958 23.3998 319.582 23.5993 320.271 23.5993C321.41 23.5993 322.341 23.2502 322.341 22.6184C322.341 22.4356 322.258 22.2943 322.033 22.1114C321.751 21.8704 321.194 21.6044 320.138 21.2137C320.055 21.1888 319.407 20.9726 319.291 20.9311C316.831 20.1414 315.551 19.5679 314.454 18.5954C312.908 17.2572 312.01 15.4202 312.01 13.4668C312.01 9.46043 315.734 6.24365 320.288 6.24365C322.549 6.24365 324.843 7.0333 326.347 8.3383C327.386 9.236 328.059 9.90928 328.624 10.6574L328.848 10.94L324.128 14.4975C323.496 13.8492 322.906 13.3588 322.358 13.0346C321.601 12.6024 320.978 12.4029 320.288 12.4029C319.149 12.4029 318.219 12.7271 318.219 13.3837C318.219 13.5666 318.302 13.6913 318.501 13.8908C318.784 14.1318 319.341 14.3978 320.396 14.7885C320.512 14.83 321.144 15.0295 321.269 15.0711Z" fill="#00C6E1"/>
<path d="M181.268 6.22607C174.777 6.22607 169.508 11.5209 169.508 18.0043C169.508 24.4877 174.777 29.7659 181.268 29.7659C187.759 29.7659 193.028 24.4711 193.028 17.9877C193.028 11.5042 187.759 6.22607 181.268 6.22607ZM181.268 22.8087C178.6 22.8087 176.464 20.6558 176.464 18.0043C176.464 15.3527 178.625 13.1999 181.268 13.1999C183.911 13.1999 186.072 15.3527 186.072 18.0043C186.072 20.6558 183.911 22.8087 181.268 22.8087Z" fill="#00C6E1"/>
<path d="M236.695 6.18547C233.57 5.587 230.403 6.23534 227.785 8.00581C225.167 9.78459 223.388 12.4777 222.79 15.6114C222.507 17.0743 222.507 18.5871 222.79 19.9752C223.646 24.6965 227.519 28.6198 232.207 29.5175C233.071 29.6837 233.935 29.7668 234.766 29.7668C239.612 29.7668 242.845 27.0238 244.341 25.3864L244.574 25.137L239.761 21.488L239.57 21.6625C238.689 22.4854 236.271 23.8902 233.387 23.3333C231.791 23.0257 230.536 22.0033 229.938 20.5487L245.82 20.7067L245.986 20.3492C246.078 20.1498 246.103 19.9669 246.119 19.8173C246.119 19.7674 246.128 19.7092 246.144 19.6261C247.125 13.2923 242.969 7.39072 236.678 6.17715L236.695 6.18547ZM230.046 15.0295C230.918 13.126 232.93 11.9291 234.899 12.1535C236.611 12.3115 238.191 13.5001 238.955 15.1542L230.046 15.0378V15.0295Z" fill="#00C6E1"/>
<path d="M207.87 6.22607C201.379 6.22607 196.109 11.5209 196.109 18.0043V35.0191H203.066V28.7352C204.529 29.3918 206.158 29.7659 207.87 29.7659C214.361 29.7659 219.63 24.4711 219.63 17.9877C219.63 11.5042 214.361 6.22607 207.87 6.22607ZM207.87 22.8087C205.202 22.8087 203.066 20.6558 203.066 18.0043C203.066 15.3527 205.227 13.1999 207.87 13.1999C210.513 13.1999 212.673 15.3527 212.673 18.0043C212.673 20.6558 210.513 22.8087 207.87 22.8087Z" fill="#00C6E1"/>
<path d="M7.54784 6.91632H13.4072V13.9899H7.54784V16.9739C7.54784 19.4177 7.73899 20.2655 8.14624 21.0552C8.42051 21.5705 8.76126 21.9196 9.28486 22.1939C10.0495 22.6095 10.9222 22.7924 13.3656 22.7924H13.4238V29.8743H13.3656C9.60069 29.8743 7.69744 29.3755 5.96041 28.4446C4.22339 27.5136 2.86036 26.1505 1.92951 24.4132C0.998668 22.676 0.5 20.7726 0.5 17.0072V0.58252H7.56446V6.93294H7.53953V6.90801L7.54784 6.91632Z" fill="white"/>
<path d="M23.9771 6.45068V17.007C23.9771 19.4508 24.1683 20.2986 24.5755 21.0882C24.7168 21.3625 24.8664 21.562 25.0492 21.7532C25.7474 22.4514 26.6616 22.8255 27.634 22.8255C28.6064 22.8255 29.5123 22.4597 30.2188 21.7532C30.4099 21.562 30.5761 21.3625 30.6925 21.0882C31.1081 20.3235 31.2909 19.4508 31.2909 17.007V6.45068H38.3637V17.007C38.3637 20.7724 37.865 22.6759 36.9342 24.4131C36.4604 25.2775 35.9036 26.0672 35.2138 26.7321C33.1193 28.8268 30.3767 29.8824 27.6174 29.8824C24.8581 29.8824 22.1154 28.8268 20.021 26.7321C19.3395 26.0506 18.7827 25.2858 18.3006 24.4131C17.3698 22.6759 16.8711 20.7724 16.8711 17.007V6.45068H23.9439H23.9771Z" fill="white"/>
<path d="M62.7753 10.7069L57.1321 14.971C56.2428 13.7907 54.8382 13.026 53.2175 13.026C50.533 13.026 48.3306 15.2204 48.3306 17.9135C48.3306 20.6066 50.5247 22.801 53.2175 22.801C54.8133 22.801 56.2178 22.0363 57.1321 20.856L62.7836 25.12C60.5895 28.021 57.1321 29.8746 53.2258 29.8746C46.6185 29.8746 41.2578 24.5133 41.2578 17.9052C41.2578 11.2971 46.6185 5.94409 53.2175 5.94409C57.1071 5.91916 60.5895 7.806 62.7753 10.6986V10.7069Z" fill="white"/>
<path d="M75.4402 5.92725C68.8411 5.92725 63.4805 11.3052 63.4805 17.9133C63.4805 24.5214 68.8411 29.8743 75.4402 29.8743C82.0392 29.8743 87.3999 24.4964 87.3999 17.8883C87.3999 11.2802 82.0392 5.92725 75.4402 5.92725ZM75.4402 22.7924C72.7308 22.7924 70.5532 20.5981 70.5532 17.9049C70.5532 15.2118 72.7474 13.0174 75.4402 13.0174C78.133 13.0174 80.3271 15.2118 80.3271 17.9049C80.3271 20.5981 78.133 22.7924 75.4402 22.7924Z" fill="white"/>
<path d="M138.787 14.9287C141.288 15.735 142.593 16.3168 143.707 17.306C145.278 18.6692 146.192 20.5311 146.192 22.526C146.192 26.6072 142.402 29.8738 137.773 29.8738C135.479 29.8738 133.135 29.0676 131.606 27.7459C130.55 26.8316 129.869 26.15 129.287 25.3853L129.062 25.0944L133.866 21.4703C134.481 22.1353 135.088 22.6257 135.662 22.9582C136.426 23.3904 137.066 23.5982 137.773 23.5982C138.928 23.5982 139.884 23.2408 139.884 22.6008C139.884 22.4096 139.8 22.2683 139.576 22.0854C139.285 21.8361 138.728 21.5701 137.648 21.1711C137.565 21.1462 136.9 20.9217 136.784 20.8802C134.282 20.0739 132.977 19.4921 131.863 18.5029C130.293 17.1397 129.378 15.2778 129.378 13.2829C129.378 9.2017 133.168 5.93506 137.798 5.93506C140.091 5.93506 142.435 6.74133 143.964 8.06295C145.02 8.97728 145.701 9.65887 146.283 10.4236L146.508 10.7145L141.704 14.3386C141.064 13.6736 140.465 13.1832 139.909 12.8507C139.144 12.4185 138.504 12.2107 137.798 12.2107C136.642 12.2107 135.686 12.5432 135.686 13.2081C135.686 13.3993 135.77 13.5157 135.977 13.7235C136.268 13.9728 136.825 14.2388 137.906 14.6378C138.03 14.6794 138.67 14.8872 138.795 14.9287H138.787Z" fill="white"/>
<path d="M119.093 6.44287V16.9992C119.093 19.443 118.902 20.3074 118.495 21.0804C118.37 21.3547 118.204 21.5542 118.021 21.7454C117.315 22.4519 116.409 22.8177 115.437 22.8177C114.464 22.8177 113.55 22.4436 112.852 21.7454C112.661 21.5542 112.519 21.3547 112.378 21.0804C111.962 20.2908 111.78 19.443 111.78 16.9992V6.44287H104.707V16.9992C104.707 19.443 104.516 20.3074 104.108 21.0804C103.984 21.3547 103.818 21.5542 103.635 21.7454C102.928 22.4519 102.022 22.8177 101.05 22.8177C100.078 22.8177 99.1633 22.4436 98.4652 21.7454C98.2741 21.5542 98.1328 21.3547 97.9915 21.0804C97.5759 20.2908 97.3931 19.443 97.3931 16.9992V6.44287H90.3203V16.9992C90.3203 20.7646 90.819 22.668 91.7498 24.4053C92.2236 25.278 92.7804 26.0427 93.4702 26.7243C95.5646 28.819 98.3073 29.8746 101.067 29.8746C103.651 29.8746 106.236 28.9437 108.272 27.0984C110.309 28.9437 112.893 29.8746 115.478 29.8746C118.229 29.8746 120.98 28.819 123.074 26.7243C123.756 26.0594 124.313 25.2697 124.795 24.4053C125.726 22.668 126.224 20.7646 126.224 16.9992V6.44287H119.152H119.093Z" fill="white"/>
<path d="M168.485 0.499512H161.604L150.824 30.0157H157.889L168.485 0.499512Z" fill="#00C6E1"/>
<path d="M263.215 29.3922V18.8359C263.215 16.3921 263.024 15.5443 262.616 14.7546C262.475 14.4803 262.325 14.2808 262.143 14.0897C261.444 13.3914 260.53 13.0174 259.558 13.0174C258.585 13.0174 257.679 13.3831 256.973 14.0897C256.782 14.2808 256.616 14.4803 256.499 14.7546C256.084 15.5193 255.901 16.3921 255.901 18.8359V29.3922H248.828V18.8359C248.828 15.0705 249.327 13.167 250.258 11.4298C250.731 10.5653 251.288 9.77569 251.978 9.11073C254.072 7.01608 256.815 5.96045 259.574 5.96045C262.334 5.96045 265.076 7.01608 267.171 9.11073C267.852 9.79232 268.409 10.557 268.891 11.4298C269.822 13.167 270.321 15.0705 270.321 18.8359V29.3922H263.248H263.215Z" fill="#00C6E1"/>
</svg>
